<svg width="500" height="500" viewBox="0 0 500 500" fill="none" xmlns="http://www.w3.org/2000/svg">
<rect width="500" height="500" rx="50" fill="#025DFA"/>
<path d="M350.583 130.925C362.323 120.042 366.989 116.008 368.565 115.383C370.004 114.809 371.385 114.615 372.824 114.781C373.993 114.918 375.805 115.506 376.846 116.089C377.887 116.672 383.135 121.625 388.511 127.1C395.165 133.878 398.595 137.737 399.267 139.187C399.807 140.363 400.252 142.174 400.252 143.216C400.252 144.259 399.864 145.966 399.395 147.009C398.78 148.369 394.819 152.374 385.326 161.224C378.058 167.998 370.411 175.16 368.328 177.136C366.246 179.108 359.858 185.076 354.132 190.394C348.406 195.713 340.101 203.487 335.677 207.677C331.252 211.862 324.542 218.157 320.77 221.66C316.994 225.163 309.437 232.216 303.971 237.331C298.505 242.441 285.729 254.381 275.578 263.866C265.428 273.346 252.755 285.182 247.422 290.173C242.084 295.165 232.714 303.891 226.6 309.565C220.482 315.243 214.841 320.211 214.06 320.609C213.279 321.007 211.467 321.434 210.038 321.553C207.823 321.737 207.066 321.572 204.979 320.424C203.205 319.448 190.702 307.403 159.792 276.887C136.287 253.684 113.781 231.5 109.778 227.59C105.301 223.215 102.163 219.75 101.624 218.584C101.141 217.541 100.749 215.73 100.749 214.555C100.749 213.384 101.118 211.63 101.567 210.663C102.069 209.578 104.828 206.686 108.77 203.107C112.281 199.922 117.765 194.902 120.955 191.949C124.144 189.001 127.495 186.271 128.408 185.877C129.317 185.489 131.233 185.166 132.667 185.166C134.096 185.166 136.069 185.503 137.044 185.92C138.27 186.437 149.935 197.756 174.901 222.656C194.748 242.445 211.183 258.585 211.424 258.519C211.666 258.453 212.891 257.443 214.145 256.267C215.404 255.097 218.56 252.205 221.158 249.845C223.761 247.484 231.001 240.876 237.248 235.16C243.494 229.443 254.459 219.323 261.618 212.668C268.773 206.013 279.634 195.964 285.752 190.338C291.866 184.711 305.391 172.349 315.802 162.864C326.212 153.384 341.862 139.012 350.583 130.925Z" fill="white"/>
<path d="M99.8053 318.492L99.7485 384.418H149.909L149.947 301.229C119.297 271.134 108.205 260.256 105.526 257.639C102.848 255.023 100.477 252.809 100.26 252.724C100.037 252.634 99.8337 282.231 99.8053 318.492Z" fill="white"/>
<path d="M342.749 231.897L367.824 208.813C381.614 196.114 392.952 185.724 393.018 185.724C393.084 185.719 393.137 230.617 393.137 385.276H342.976L342.749 231.897Z" fill="white"/>
</svg>
