<svg width="9040" height="1301" viewBox="0 0 9040 1301" fill="none" xmlns="http://www.w3.org/2000/svg">
<path d="M1402.52 652.815C1402.52 397.113 1195.28 189.826 939.641 189.826C684.001 189.826 476.764 397.113 476.764 652.815C476.764 908.517 684.001 1115.8 939.641 1115.8C1195.28 1115.8 1402.52 908.517 1402.52 652.815Z" fill="#5EA500"/>
<path d="M1268.08 441.467C1276.96 439.289 1300.33 437.701 1301.07 449.884C1301.25 452.858 1297.89 459.313 1296.57 462.317C1286.16 483.393 1275.46 504.348 1265.03 525.414L1161.75 732.06L1120.48 814.648C1113.57 828.353 1106.02 845.766 1097.22 857.813C1082.69 877.703 1059.67 889.222 1035.64 892.898C1029.2 893.875 1022.46 894.083 1016.41 891.458C1000.24 894.898 983.445 894.005 967.725 888.884C938.999 879.254 924.011 861.545 910.935 835.557C909.44 831.691 905.487 824.348 903.427 820.241L888.471 790.369C881.426 776.29 868.813 748.932 861.069 736.023C855.214 722.708 846.252 706.017 839.624 692.739L798.252 609.845C791.462 596.261 784.44 582.82 777.913 569.097C774.344 563.069 778.496 554.333 785.833 554.083C799.108 553.629 813.078 553.559 826.446 553.754C839.823 553.948 855.413 552.791 868.457 555.37C889.471 550.207 912.032 557.032 922.613 576.825C930.172 590.969 936.972 605.414 944.197 619.744L993.082 717.504C995.591 722.569 1008.15 748.76 1011.07 751.409C1020.25 731.908 1031.21 711.017 1040.9 691.627L1102.66 568.069L1137.42 498.413C1145.98 481.24 1161.35 440.986 1185.8 441.49C1207.05 441.927 1248.67 437.584 1268.08 441.467Z" fill="white"/>
<path d="M1268.07 441.466C1276.96 439.289 1300.33 437.7 1301.07 449.883C1301.25 452.857 1297.89 459.312 1296.57 462.317C1286.16 483.393 1275.45 504.348 1265.02 525.414L1161.75 732.06L1120.48 814.648C1113.57 828.353 1106.02 845.766 1097.22 857.813C1082.69 877.703 1059.66 889.222 1035.64 892.894C1029.2 893.875 1022.46 894.083 1016.4 891.454C1034 886.703 1047.11 880.453 1060.45 867.651C1071.83 856.739 1077.68 844.784 1084.55 830.918C1091.83 816.204 1099.19 801.495 1106.54 786.818L1164.09 671.747L1235.34 529.1C1247.26 505.237 1259.31 481.435 1271.08 457.5C1274.64 450.251 1273.69 446.775 1268.07 441.466Z" fill="#9CE141"/>
<path d="M868.455 555.37C889.47 550.207 912.03 557.032 922.612 576.825C930.175 590.969 936.97 605.414 944.196 619.744L993.085 717.504C995.594 722.569 1008.16 748.76 1011.08 751.409C997.88 780.244 989.002 767.354 979.921 747.024C977.879 742.454 975.116 737.38 972.848 732.834L917.099 621.142C909.031 604.993 900.681 586.733 891.201 571.389C886.605 563.954 876.477 558.509 868.455 555.37Z" fill="#9CE141"/>
<path d="M818.271 891.528C807.152 893.759 795.728 894.069 784.499 892.444C760.73 888.865 739.364 875.962 725.126 856.595C717.821 846.687 708.319 826.367 702.505 814.75L668.298 746.191L610.142 629.846C600.209 610.007 590.234 590.196 580.435 570.283C575.824 563.657 580.333 553.462 589.04 553.958C612.832 555.319 647.2 550.985 670.145 555.356C689.197 550.318 712.841 556.759 723.001 574.598C732.245 590.835 740.123 607.789 748.464 624.526L795.094 717.532C798.422 724.25 808.893 747.515 812.971 751.436C815.253 746.644 817.835 739.973 822.788 737.57C832.416 732.903 837.239 744.408 840.396 750.654C845.21 747.094 844.918 737.769 852.037 736.635C854.958 736.158 858.592 737.551 861.068 736.023C868.812 748.932 881.426 776.29 888.466 790.369L903.426 820.241C905.486 824.348 909.439 831.691 910.934 835.557C907.99 839.302 905.699 849.011 901.866 854.313C887.563 874.068 867.271 887.625 843.09 891.764C834.976 893.176 825.88 894.5 818.271 891.528Z" fill="white"/>
<path d="M670.15 555.351C689.202 550.318 712.846 556.754 723.006 574.598C732.25 590.835 740.128 607.785 748.469 624.522L795.1 717.532C798.428 724.25 808.898 747.51 812.976 751.432C810.629 756.446 807.292 764.701 801.996 767.011C793.609 770.678 789.61 762.418 786.499 756.238C781.57 746.455 776.677 736.63 771.78 726.819L719.401 621.836C716.406 615.827 713.522 609.651 710.361 603.724C698.293 581.084 695.933 565.065 670.15 555.351Z" fill="#9CE141"/>
<path d="M861.067 736.019C868.811 748.932 881.425 776.285 888.465 790.369L903.425 820.241C905.485 824.348 909.438 831.691 910.928 835.557C907.989 839.303 905.698 849.012 901.865 854.308C887.562 874.069 867.27 887.625 843.089 891.764C834.975 893.176 825.879 894.5 818.27 891.523C840.613 885.856 859.068 874.272 872.871 855.605C877.041 849.961 883.656 840.233 880.878 832.913C877.439 823.853 872.389 814.727 868.015 806.014L840.395 750.654C845.209 747.094 844.913 737.769 852.036 736.63C854.957 736.158 858.591 737.552 861.067 736.019Z" fill="#9CE141"/>
<path d="M1885.38 1027.84L1737.44 459.622H1919.03L1995.59 823.635H2000.4L2082.5 459.622H2259.65L2343.98 821.047H2348.79L2423.12 459.622H2604.72L2456.41 1027.84H2262.99L2174.22 696.748H2167.93L2079.17 1027.84H1885.38ZM2858.15 703.776V1027.84H2677.3V270.217H2852.23V563.944H2858.52C2871.34 528.924 2892.3 501.547 2921.4 481.819C2950.73 462.088 2986.61 452.223 3029.02 452.223C3068.96 452.223 3103.72 461.102 3133.32 478.861C3162.9 496.371 3185.83 521.155 3202.1 553.217C3218.62 585.274 3226.76 622.762 3226.51 665.672V1027.84H3045.66V701.188C3045.91 669.621 3038.02 644.958 3021.99 627.202C3005.96 609.442 2983.4 600.567 2954.31 600.567C2935.33 600.567 2918.56 604.757 2904.01 613.141C2889.71 621.281 2878.49 632.994 2870.36 648.287C2862.47 663.579 2858.4 682.076 2858.15 703.776Z" fill="#5EA500"/>
<path d="M4270.78 459.622V592.798H3912.4V459.622H4270.78ZM3987.48 323.488H4168.33V849.16C4168.33 860.257 4170.06 869.258 4173.51 876.166C4177.21 882.823 4182.51 887.634 4189.41 890.592C4196.32 893.306 4204.58 894.662 4214.2 894.662C4221.1 894.662 4228.37 894.046 4236.02 892.81C4243.9 891.333 4249.82 890.097 4253.77 889.111L4281.14 1019.7C4272.5 1022.16 4260.3 1025.25 4244.52 1028.95C4228.99 1032.65 4210.37 1034.99 4188.67 1035.98C4146.27 1037.95 4109.9 1033.02 4079.57 1021.18C4049.49 1009.09 4026.44 990.348 4010.41 964.949C3994.63 939.544 3986.99 907.607 3987.48 869.138V323.488ZM4851.88 633.12L4685.85 637.56C4684.09 625.721 4679.42 615.239 4671.78 606.113C4664.14 596.742 4654.14 589.469 4641.83 584.288C4629.75 578.862 4615.69 576.149 4599.66 576.149C4578.7 576.149 4560.83 580.343 4546.03 588.728C4531.49 597.113 4524.34 608.456 4524.58 622.762C4524.34 633.86 4528.78 643.477 4537.9 651.616C4547.27 659.755 4563.91 666.293 4587.83 671.224L4697.28 691.938C4754.03 702.79 4796.15 720.796 4823.79 745.95C4851.65 771.104 4865.72 804.398 4865.96 845.831C4865.72 884.796 4854.11 918.705 4831.19 947.563C4808.51 976.417 4777.45 998.858 4737.97 1014.89C4698.53 1030.67 4653.4 1038.56 4602.62 1038.56C4521.5 1038.56 4457.52 1021.92 4410.67 988.626C4364.07 955.082 4337.44 910.2 4330.79 853.97L4509.42 849.53C4513.36 870.244 4523.6 886.027 4540.12 896.88C4556.64 907.732 4577.72 913.159 4603.36 913.159C4626.54 913.159 4645.39 908.844 4659.93 900.209C4674.51 891.579 4681.87 880.11 4682.15 865.809C4681.87 852.984 4676.22 842.747 4665.11 835.103C4654.05 827.209 4636.65 821.047 4612.97 816.607L4513.86 797.74C4456.9 787.383 4414.49 768.266 4386.63 740.399C4358.77 712.286 4344.96 676.525 4345.21 633.12C4344.96 595.141 4355.07 562.708 4375.54 535.827C4396 508.7 4425.1 487.982 4462.82 473.68C4500.55 459.376 4545.05 452.224 4596.33 452.224C4673.26 452.224 4733.9 468.379 4778.29 500.686C4822.68 532.743 4847.21 576.889 4851.88 633.12Z" fill="#5EA500"/>
<path d="M3510.18 480.625C3596.74 474.453 3655.77 487.528 3711.68 558.629C3711.13 520.585 3704.38 482.356 3757.06 486.046C3782.97 487.861 3808.48 489.241 3834.44 490.306C3842.44 629.758 3830.3 781.142 3835.49 921.728C3836.15 939.614 3838.65 1005.69 3826.33 1016.21C3798.37 1023.47 3754.94 1022.27 3726.15 1018.33C3700.83 1014.87 3718.12 965.221 3709.12 950.823L3701.96 957.693C3671.6 990.436 3632.37 1015.56 3588 1023.31C3246.14 1082.96 3183.63 534.016 3510.18 480.625Z" fill="#5EA500"/>
<path d="M3499.08 657.931C3515.23 657.112 3540.25 657.542 3556.79 657.732C3597.92 658.2 3637.68 652.496 3673.77 676.108C3695.22 689.863 3710.28 711.624 3715.62 736.542C3720.88 761.631 3716.01 787.786 3702.05 809.291C3685.08 835.145 3663.69 847.34 3634.31 853.451C3622.84 867.73 3616.33 872.605 3600.41 880.708C3587.19 886.523 3581.1 887.736 3567.29 890.153C3573.02 877.721 3572.38 868.258 3572.29 854.933C3521.44 855.276 3464.61 863.017 3424.88 827.205C3405.87 810.352 3394.41 786.591 3393.05 761.224C3391.59 735.732 3400.55 710.744 3417.87 691.979C3440.93 667.061 3466.55 659.413 3499.08 657.931Z" fill="white"/>
<path d="M3483.64 730.787C3496.01 727.953 3508.33 735.718 3511.11 748.107C3513.88 760.492 3506.06 772.775 3493.66 775.489C3481.34 778.183 3469.17 770.423 3466.41 758.122C3463.65 745.82 3471.35 733.607 3483.64 730.787Z" fill="#5EA500"/>
<path d="M3617.53 730.935C3629.68 727.972 3641.95 735.338 3645.06 747.45C3648.17 759.562 3640.95 771.923 3628.88 775.174C3620.94 777.313 3612.46 775.016 3606.68 769.159C3600.91 763.307 3598.72 754.797 3600.97 746.885C3603.21 738.973 3609.54 732.88 3617.53 730.935Z" fill="#5EA500"/>
<path d="M3551.42 730.949C3558.17 729.546 3565.19 731.282 3570.5 735.671C3575.82 740.061 3578.85 746.63 3578.75 753.52C3578.6 763.525 3571.92 772.257 3562.3 775.012C3554.31 777.308 3545.7 775.049 3539.87 769.122C3534.03 763.201 3531.89 754.561 3534.3 746.603C3536.71 738.648 3543.28 732.639 3551.42 730.949Z" fill="#5EA500"/>
<path d="M6338.55 1027.84V459.622H6514.26V563.203H6520.19C6530.51 525.715 6547.41 497.848 6570.83 479.597C6594.25 461.102 6621.51 451.854 6652.57 451.854C6660.95 451.854 6669.61 452.47 6678.45 453.703C6687.33 454.69 6695.62 456.293 6703.26 458.512V615.734C6694.6 612.776 6683.26 610.433 6669.23 608.706C6655.39 606.979 6643.08 606.113 6632.25 606.113C6610.77 606.113 6591.42 610.924 6574.16 620.54C6557.17 629.916 6543.7 643.106 6533.84 660.126C6524.21 676.895 6519.45 696.623 6519.45 719.314V1027.84H6338.55ZM6940.02 878.754L6940.76 663.084H6965.94L7125.68 459.622H7330.59L7093.14 751.126H7045.41L6940.02 878.754ZM6776.95 1027.84V270.217H6957.79V1027.84H6776.95ZM7129.75 1027.84L6981.07 791.818L7100.17 663.455L7338.74 1027.84H7129.75ZM7497 1038.56C7470.38 1038.56 7447.56 1029.19 7428.59 1010.45C7409.84 991.705 7400.63 969.018 7400.86 942.383C7400.63 916.242 7409.84 893.921 7428.59 875.425C7447.56 856.683 7470.38 847.312 7497 847.312C7522.18 847.312 7544.35 856.683 7563.61 875.425C7583.05 893.921 7592.91 916.242 7593.18 942.383C7592.91 960.138 7588.23 976.292 7579.11 990.844C7570.23 1005.4 7558.52 1016.98 7543.98 1025.62C7529.68 1034.25 7514.03 1038.56 7497 1038.56ZM7712.65 1027.84V459.622H7893.5V1027.84H7712.65ZM7803.24 393.404C7777.83 393.404 7756.03 385.019 7737.79 368.249C7719.55 351.233 7710.43 330.763 7710.43 306.841C7710.43 283.165 7719.55 262.942 7737.79 246.172C7756.03 229.155 7777.83 220.647 7803.24 220.647C7828.88 220.647 7850.68 229.155 7868.69 246.172C7886.93 262.942 7896.09 283.165 7896.09 306.841C7896.09 330.763 7886.93 351.233 7868.69 368.249C7850.68 385.019 7828.88 393.404 7803.24 393.404ZM8273.75 1038.56C8214.09 1038.56 8162.8 1026.35 8119.94 1001.94C8077.26 977.278 8044.35 942.998 8021.16 899.102C7998.25 854.956 7986.77 803.782 7986.77 745.58C7986.77 687.132 7998.25 635.958 8021.16 592.057C8044.35 547.911 8077.26 513.631 8119.94 489.218C8162.8 464.554 8214.09 452.224 8273.75 452.224C8333.42 452.224 8384.61 464.554 8427.24 489.218C8470.15 513.631 8503.06 547.911 8526.02 592.057C8549.17 635.958 8560.78 687.132 8560.78 745.58C8560.78 803.782 8549.17 854.956 8526.02 899.102C8503.06 942.998 8470.15 977.278 8427.24 1001.94C8384.61 1026.35 8333.42 1038.56 8273.75 1038.56ZM8274.86 902.061C8296.57 902.061 8314.95 895.403 8329.99 882.083C8345.04 868.767 8356.52 850.271 8364.39 826.594C8372.53 802.916 8376.6 775.544 8376.6 744.469C8376.6 712.902 8372.53 685.28 8364.39 661.603C8356.52 637.93 8345.04 619.434 8329.99 606.113C8314.95 592.798 8296.57 586.14 8274.86 586.14C8252.46 586.14 8233.48 592.798 8217.93 606.113C8202.66 619.434 8190.94 637.93 8182.8 661.603C8174.88 685.28 8170.95 712.902 8170.95 744.469C8170.95 775.544 8174.88 802.916 8182.8 826.594C8190.94 850.271 8202.66 868.767 8217.93 882.083C8233.48 895.403 8252.46 902.061 8274.86 902.061Z" fill="#5EA500"/>
<path d="M5903.26 482.861C5989.82 476.694 6048.84 489.769 6104.75 560.866C6104.2 522.826 6097.44 484.597 6150.12 488.283C6176.04 490.098 6201.54 491.482 6227.51 492.542C6235.52 631.995 6223.39 783.383 6228.57 923.965C6229.22 941.85 6231.72 1007.92 6219.41 1018.45C6191.45 1025.71 6148.03 1024.51 6119.24 1020.56C6093.92 1017.11 6111.19 967.458 6102.21 953.059L6095.03 959.935C6064.67 992.677 6025.46 1017.79 5981.07 1025.55C5639.24 1085.21 5576.7 536.253 5903.26 482.861Z" fill="#5EA500"/>
<path d="M5945.2 602.336C5947.14 602.155 5950.06 601.859 5952 601.891C5957.79 602.016 5963.34 604.47 5967.33 608.697C5971.31 612.878 5973.3 618.526 5972.88 624.263C5972.19 632.518 5967.88 636.657 5962 641.43L5961.96 665.575C5997.78 665.399 6024.26 666.585 6052.4 692.336C6105.91 741.293 6087.77 836.247 6017.55 858.568C5995.79 865.48 5981.21 865.364 5958.58 865.837C5918.49 866.341 5879.98 866.716 5848.92 836.9C5810.59 800.106 5809.16 733.264 5847.21 695.642C5877.2 665.983 5903.68 665.543 5942.56 665.571C5942.51 657.783 5942.61 649.996 5942.75 642.213C5926.78 629.388 5926.78 612.586 5945.2 602.336Z" fill="white"/>
<path d="M5889.1 732.597C5896.64 730.732 5904.56 733.097 5909.88 738.783C5915.16 744.468 5916.96 752.585 5914.6 759.988C5912.24 767.396 5906.04 772.928 5898.4 774.452C5887.02 776.739 5875.86 769.475 5873.36 758.099C5870.82 746.723 5877.8 735.394 5889.1 732.597Z" fill="#5EA500"/>
<path d="M6004.12 732.523C6015.65 729.769 6027.22 736.912 6029.95 748.464C6032.64 760.02 6025.46 771.581 6013.94 774.266C6002.46 776.938 5990.98 769.794 5988.29 758.293C5985.56 746.793 5992.69 735.269 6004.12 732.523Z" fill="#5EA500"/>
<path d="M5802.73 738.153C5804.67 738.065 5804.58 738.093 5806.43 738.639C5809.21 745.515 5805.41 766.831 5806.8 775.716C5807.17 777.938 5807.12 790.388 5806.85 791.943C5802.82 793.17 5799.53 791.476 5795.83 789.804C5781.67 778.757 5781.76 744.033 5802.73 738.153Z" fill="white"/>
<path d="M6094.99 737.959C6111.28 738.042 6116 748.751 6116.28 763.752C6116.42 773.216 6116.05 780.841 6109.2 787.99C6105.45 790.518 6100.13 793.453 6095.68 791.541C6094.94 773.632 6098.6 756.488 6094.99 737.959Z" fill="white"/>
<path d="M4952.79 648.185L5100.91 766.549V1027.84H4952.79V648.185Z" fill="#5EA500"/>
<path d="M5471.21 630.944L5619.33 504.659V1027.84H5471.21V630.944Z" fill="#5EA500"/>
<path d="M5529.07 354.187L5210.8 631.981L5043.05 490.769L4952.79 601.886L5210.8 807.917L5619.33 458.36L5529.07 354.187Z" fill="#5EA500"/>
</svg>
