<svg width="745" height="126" viewBox="49.11 44.42 745.35 126.24" fill="none" xmlns="http://www.w3.org/2000/svg">
<g transform="translate(59.1077 56.1098) scale(0.209101)">
<rect width="500" height="500" rx="130" fill="#133501"/>
<path d="M350.583 130.925C362.323 120.042 366.989 116.008 368.565 115.383C370.004 114.809 371.385 114.615 372.824 114.781C373.993 114.918 375.805 115.506 376.846 116.089C377.887 116.672 383.135 121.625 388.511 127.1C395.165 133.878 398.595 137.737 399.267 139.187C399.807 140.363 400.252 142.174 400.252 143.216C400.252 144.259 399.864 145.966 399.395 147.009C398.78 148.369 394.819 152.374 385.326 161.224C378.058 167.998 370.411 175.16 368.328 177.136C366.246 179.108 359.858 185.076 354.132 190.394C348.406 195.713 340.101 203.487 335.677 207.677C331.252 211.862 324.542 218.157 320.77 221.66C316.994 225.163 309.437 232.216 303.971 237.331C298.505 242.441 285.729 254.381 275.578 263.866C265.428 273.346 252.755 285.182 247.422 290.173C242.084 295.165 232.714 303.891 226.6 309.565C220.482 315.243 214.841 320.211 214.06 320.609C213.279 321.007 211.467 321.434 210.038 321.553C207.823 321.737 207.066 321.572 204.979 320.424C203.205 319.448 190.702 307.403 159.792 276.887C136.287 253.684 113.781 231.5 109.778 227.59C105.301 223.215 102.163 219.75 101.624 218.584C101.141 217.541 100.749 215.73 100.749 214.555C100.749 213.384 101.118 211.63 101.567 210.663C102.069 209.578 104.828 206.686 108.77 203.107C112.281 199.922 117.765 194.902 120.955 191.949C124.144 189.001 127.495 186.271 128.408 185.877C129.317 185.489 131.233 185.166 132.667 185.166C134.096 185.166 136.069 185.503 137.044 185.92C138.27 186.437 149.935 197.756 174.901 222.656C194.748 242.445 211.183 258.585 211.424 258.519C211.666 258.453 212.891 257.443 214.145 256.267C215.404 255.097 218.56 252.205 221.158 249.845C223.761 247.484 231.001 240.876 237.248 235.16C243.494 229.443 254.459 219.323 261.618 212.668C268.773 206.013 279.634 195.964 285.752 190.338C291.866 184.711 305.391 172.349 315.802 162.864C326.212 153.384 341.862 139.012 350.583 130.925Z" fill="#A3E634"/>
<path d="M99.8053 318.492L99.7485 384.418H149.909L149.947 301.229C119.297 271.134 108.205 260.256 105.526 257.639C102.848 255.023 100.477 252.809 100.26 252.724C100.037 252.634 99.8337 282.231 99.8053 318.492Z" fill="#A3E634"/>
<path d="M342.749 231.897L367.824 208.813C381.614 196.114 392.952 185.724 393.018 185.724C393.084 185.719 393.137 230.617 393.137 385.276H342.976L342.749 231.897Z" fill="#A3E634"/>
</g>
<path d="M261.678 81.924L246.45 134H232.256L222.762 97.622L213.268 134H198.98L183.658 81.924H197.006L206.218 121.592L216.182 81.924H230.094L239.87 121.498L249.082 81.924H261.678ZM292.487 81.172C296.435 81.172 299.944 82.0493 303.015 83.804C306.085 85.496 308.467 88.034 310.159 91.418C311.913 94.7393 312.791 98.75 312.791 103.45V134H299.631V105.236C299.631 101.1 298.597 97.9353 296.529 95.742C294.461 93.486 291.641 92.358 288.069 92.358C284.434 92.358 281.551 93.486 279.421 95.742C277.353 97.9353 276.319 101.1 276.319 105.236V134H263.159V64.44H276.319V88.41C278.011 86.154 280.267 84.3993 283.087 83.146C285.907 81.83 289.04 81.172 292.487 81.172ZM316.281 107.774C316.281 102.51 317.315 97.8413 319.383 93.768C321.514 89.6947 324.365 86.5613 327.937 84.368C331.572 82.1747 335.614 81.078 340.063 81.078C343.948 81.078 347.332 81.8613 350.215 83.428C353.16 84.9947 355.51 86.9687 357.265 89.35V81.924H370.519V134H357.265V126.386C355.573 128.83 353.223 130.867 350.215 132.496C347.27 134.063 343.854 134.846 339.969 134.846C335.582 134.846 331.572 133.718 327.937 131.462C324.365 129.206 321.514 126.041 319.383 121.968C317.315 117.832 316.281 113.101 316.281 107.774ZM357.265 107.962C357.265 104.766 356.638 102.04 355.385 99.784C354.132 97.4653 352.44 95.7107 350.309 94.52C348.178 93.2667 345.891 92.64 343.447 92.64C341.003 92.64 338.747 93.2353 336.679 94.426C334.611 95.6167 332.919 97.3713 331.603 99.69C330.35 101.946 329.723 104.641 329.723 107.774C329.723 110.907 330.35 113.665 331.603 116.046C332.919 118.365 334.611 120.151 336.679 121.404C338.81 122.657 341.066 123.284 343.447 123.284C345.891 123.284 348.178 122.689 350.309 121.498C352.44 120.245 354.132 118.49 355.385 116.234C356.638 113.915 357.265 111.158 357.265 107.962ZM393.054 92.734V117.926C393.054 119.681 393.461 120.965 394.276 121.78C395.153 122.532 396.595 122.908 398.6 122.908H404.71V134H396.438C385.346 134 379.8 128.611 379.8 117.832V92.734H373.596V81.924H379.8V69.046H393.054V81.924H404.71V92.734H393.054ZM428.463 134.846C424.202 134.846 420.379 134.094 416.995 132.59C413.611 131.023 410.917 128.924 408.911 126.292C406.969 123.66 405.903 120.746 405.715 117.55H418.969C419.22 119.555 420.191 121.216 421.883 122.532C423.638 123.848 425.8 124.506 428.369 124.506C430.876 124.506 432.819 124.005 434.197 123.002C435.639 121.999 436.359 120.715 436.359 119.148C436.359 117.456 435.482 116.203 433.727 115.388C432.035 114.511 429.309 113.571 425.549 112.568C421.664 111.628 418.468 110.657 415.961 109.654C413.517 108.651 411.387 107.116 409.569 105.048C407.815 102.98 406.937 100.191 406.937 96.682C406.937 93.7993 407.752 91.1673 409.381 88.786C411.073 86.4047 413.455 84.5247 416.525 83.146C419.659 81.7673 423.325 81.078 427.523 81.078C433.727 81.078 438.678 82.6447 442.375 85.778C446.073 88.8487 448.109 93.016 448.485 98.28H435.889C435.701 96.212 434.824 94.5827 433.257 93.392C431.753 92.1387 429.717 91.512 427.147 91.512C424.766 91.512 422.917 91.9507 421.601 92.828C420.348 93.7053 419.721 94.9273 419.721 96.494C419.721 98.2487 420.599 99.596 422.353 100.536C424.108 101.413 426.834 102.322 430.531 103.262C434.291 104.202 437.393 105.173 439.837 106.176C442.281 107.179 444.381 108.745 446.135 110.876C447.953 112.944 448.893 115.701 448.955 119.148C448.955 122.156 448.109 124.851 446.417 127.232C444.788 129.613 442.407 131.493 439.273 132.872C436.203 134.188 432.599 134.846 428.463 134.846Z" fill="#A3E634"/>
<path d="M547.102 107.774C547.102 102.51 548.136 97.8413 550.204 93.768C552.335 89.6947 555.186 86.5613 558.758 84.368C562.393 82.1747 566.435 81.078 570.884 81.078C574.769 81.078 578.153 81.8613 581.036 83.428C583.981 84.9947 586.331 86.9687 588.086 89.35V81.924H601.34V134H588.086V126.386C586.394 128.83 584.044 130.867 581.036 132.496C578.091 134.063 574.675 134.846 570.79 134.846C566.403 134.846 562.393 133.718 558.758 131.462C555.186 129.206 552.335 126.041 550.204 121.968C548.136 117.832 547.102 113.101 547.102 107.774ZM588.086 107.962C588.086 104.766 587.459 102.04 586.206 99.784C584.953 97.4653 583.261 95.7107 581.13 94.52C578.999 93.2667 576.712 92.64 574.268 92.64C571.824 92.64 569.568 93.2353 567.5 94.426C565.432 95.6167 563.74 97.3713 562.424 99.69C561.171 101.946 560.544 104.641 560.544 107.774C560.544 110.907 561.171 113.665 562.424 116.046C563.74 118.365 565.432 120.151 567.5 121.404C569.631 122.657 571.887 123.284 574.268 123.284C576.712 123.284 578.999 122.689 581.13 121.498C583.261 120.245 584.953 118.49 586.206 116.234C587.459 113.915 588.086 111.158 588.086 107.962ZM622.653 90.008C624.345 87.2507 626.538 85.0887 629.233 83.522C631.99 81.9553 635.124 81.172 638.633 81.172V94.99H635.155C631.019 94.99 627.886 95.9613 625.755 97.904C623.687 99.8467 622.653 103.231 622.653 108.056V134H609.493V81.924H622.653V90.008ZM673.629 134L655.957 111.816V134H642.797V64.44H655.957V104.014L673.441 81.924H690.549L667.613 108.056L690.737 134H673.629ZM698.819 134.658C696.438 134.658 694.464 133.937 692.897 132.496C691.393 130.992 690.641 129.143 690.641 126.95C690.641 124.757 691.393 122.939 692.897 121.498C694.464 119.994 696.438 119.242 698.819 119.242C701.138 119.242 703.049 119.994 704.553 121.498C706.057 122.939 706.809 124.757 706.809 126.95C706.809 129.143 706.057 130.992 704.553 132.496C703.049 133.937 701.138 134.658 698.819 134.658ZM719.383 75.72C717.065 75.72 715.122 74.9993 713.555 73.558C712.051 72.054 711.299 70.2053 711.299 68.012C711.299 65.8187 712.051 64.0013 713.555 62.56C715.122 61.056 717.065 60.304 719.383 60.304C721.702 60.304 723.613 61.056 725.117 62.56C726.684 64.0013 727.467 65.8187 727.467 68.012C727.467 70.2053 726.684 72.054 725.117 73.558C723.613 74.9993 721.702 75.72 719.383 75.72ZM725.869 81.924V134H712.709V81.924H725.869ZM757.296 134.846C752.282 134.846 747.77 133.749 743.76 131.556C739.749 129.3 736.584 126.135 734.266 122.062C732.01 117.989 730.882 113.289 730.882 107.962C730.882 102.635 732.041 97.9353 734.36 93.862C736.741 89.7887 739.968 86.6553 744.042 84.462C748.115 82.206 752.658 81.078 757.672 81.078C762.685 81.078 767.228 82.206 771.302 84.462C775.375 86.6553 778.571 89.7887 780.89 93.862C783.271 97.9353 784.462 102.635 784.462 107.962C784.462 113.289 783.24 117.989 780.796 122.062C778.414 126.135 775.156 129.3 771.02 131.556C766.946 133.749 762.372 134.846 757.296 134.846ZM757.296 123.378C759.677 123.378 761.902 122.814 763.97 121.686C766.1 120.495 767.792 118.741 769.046 116.422C770.299 114.103 770.926 111.283 770.926 107.962C770.926 103.011 769.61 99.22 766.978 96.588C764.408 93.8933 761.244 92.546 757.484 92.546C753.724 92.546 750.559 93.8933 747.99 96.588C745.483 99.22 744.23 103.011 744.23 107.962C744.23 112.913 745.452 116.735 747.896 119.43C750.402 122.062 753.536 123.378 757.296 123.378Z" fill="#A3E634"/>
<path d="M528.15 59.2134C531.627 55.9953 533.009 54.8026 533.476 54.6175C533.902 54.448 534.311 54.3905 534.737 54.4395C535.083 54.4802 535.62 54.654 535.928 54.8264C536.237 54.9988 537.791 56.4634 539.383 58.0823C541.354 60.0866 542.37 61.2275 542.569 61.6564C542.728 62.004 542.86 62.5394 542.86 62.8477C542.86 63.1561 542.745 63.6607 542.607 63.969C542.424 64.3713 541.251 65.5556 538.44 68.1724C536.287 70.1753 534.022 72.2931 533.405 72.8776C532.789 73.4606 530.897 75.2252 529.201 76.7978C527.505 78.3704 525.045 80.669 523.735 81.9081C522.424 83.1457 520.437 85.007 519.32 86.0428C518.202 87.0785 515.963 89.1641 514.345 90.6764C512.726 92.1874 508.942 95.718 505.935 98.5226C502.929 101.326 499.176 104.826 497.596 106.301C496.015 107.777 493.24 110.358 491.43 112.035C489.617 113.715 487.947 115.183 487.715 115.301C487.484 115.419 486.947 115.545 486.524 115.58C485.868 115.635 485.644 115.586 485.026 115.246C484.5 114.958 480.798 111.396 471.643 102.373C464.681 95.512 458.016 88.9525 456.83 87.7962C455.504 86.5025 454.575 85.4779 454.415 85.1331C454.272 84.8248 454.156 84.2894 454.156 83.9418C454.156 83.5956 454.265 83.077 454.398 82.7911C454.547 82.4701 455.364 81.6151 456.531 80.5569C457.571 79.615 459.196 78.1307 460.14 77.2575C461.085 76.3858 462.077 75.5784 462.348 75.4621C462.617 75.3472 463.184 75.2519 463.609 75.2519C464.032 75.2519 464.617 75.3514 464.906 75.4747C465.269 75.6275 468.723 78.9745 476.118 86.3371C481.996 92.1888 486.863 96.9612 486.935 96.9416C487.006 96.922 487.369 96.6234 487.741 96.2758C488.114 95.9296 489.048 95.0747 489.818 94.3767C490.589 93.6787 492.733 91.7248 494.583 90.0345C496.433 88.3442 499.68 85.3518 501.801 83.3839C503.92 81.4161 507.137 78.4447 508.949 76.781C510.759 75.1173 514.765 71.4619 517.848 68.6574C520.932 65.8542 525.567 61.6045 528.15 59.2134Z" fill="#A3E634"/>
<path d="M453.877 114.675L453.86 134.168H468.716L468.727 109.57C459.65 100.672 456.364 97.455 455.571 96.6814C454.778 95.9077 454.076 95.2531 454.011 95.2279C453.945 95.2013 453.885 103.953 453.877 114.675Z" fill="#A3E634"/>
<path d="M525.83 89.0697L533.256 82.2439C537.34 78.489 540.698 75.4167 540.718 75.4167C540.738 75.4153 540.753 88.6913 540.753 134.423H525.897L525.83 89.0697Z" fill="#A3E634"/>
</svg>
